<svg preserveAspectRatio="none" data-bbox="20.5 20.498 159.001 159.002" viewBox="20.5 20.498 159.001 159.002" height="200" width="200" xmlns="http://www.w3.org/2000/svg" data-type="shape" role="presentation" aria-hidden="true">
    <g>
        <path d="M158.054 20.892l-2.029 25.259-.067.804-.316 3.982-29.79 5.13-.842-4.901 24.584-4.231c-23.953-21.229-59.112-24.933-87.064-8.71-29.264 16.97-43.398 51.552-34.355 84.094l-4.785 1.33c-9.646-34.725 5.426-71.623 36.652-89.732 29.226-16.941 65.849-13.486 91.342 7.992l1.723-21.411 4.947.394z"></path>
        <path d="M156.399 46.515l-.44.44.067-.804c.124.115.248.24.373.364z"></path>
        <path d="M44.042 153.045l-.067.804a12.651 12.651 0 0 1-.373-.364l.44-.44z"></path>
        <path d="M139.958 166.081a79.589 79.589 0 0 1-39.934 10.73c-18.469 0-36.776-6.394-51.408-18.731l-1.713 21.42-4.947-.392 2.019-25.259.067-.804.316-3.982 29.79-5.13.842 4.901-24.584 4.231c23.943 21.22 59.102 24.924 87.064 8.71 29.264-16.96 43.398-51.552 34.355-84.094l4.785-1.33c9.646 34.723-5.426 71.621-36.652 89.73z"></path>
    </g>
</svg>